<?xml version="1.0" encoding="utf-8"?>
<!-- Generator: Adobe Illustrator 25.3.1, SVG Export Plug-In . SVG Version: 6.00 Build 0)  -->
<svg version="1.1" id="Layer_1" xmlns="http://www.w3.org/2000/svg" xmlns:xlink="http://www.w3.org/1999/xlink" x="0px" y="0px"
	 viewBox="0 0 5000 5000" style="enable-background:new 0 0 5000 5000;" xml:space="preserve">
<style type="text/css">
	.st0{fill:#040407;stroke:#000000;stroke-miterlimit:10;}
	.st1{fill:none;stroke:#D44D6E;stroke-width:4;stroke-miterlimit:10;}
	.st2{fill:none;stroke:#FFD144;stroke-width:4;stroke-miterlimit:10;}
	.st3{fill:none;stroke:#5932C4;stroke-width:5;stroke-miterlimit:10;}
	.st4{fill:none;stroke:#8C65F7;stroke-width:5;stroke-miterlimit:10;}
	.st5{fill:#6F3FF5;}
	.st6{fill:none;stroke:#11BC92;stroke-width:5;stroke-miterlimit:10;}
	.st7{fill:none;stroke:#7FFF99;stroke-width:5;stroke-miterlimit:10;}
	.st8{fill:none;stroke:#FFD144;stroke-width:3.9996;stroke-miterlimit:9.9992;}
	.st9{fill:none;stroke:#D44D6E;stroke-width:4.0002;stroke-miterlimit:10.0006;}
	.st10{fill:none;stroke:#02E2AC;stroke-miterlimit:10;}
	.st11{fill:none;stroke:#02E2AC;stroke-width:1;stroke-miterlimit:10.0006;}
	.st12{fill:none;stroke:#02E2AC;stroke-width:1;stroke-miterlimit:10;}
	.st13{fill:#02E2AC;}
	.st14{fill:none;stroke:#FFD144;stroke-width:3.9998;stroke-miterlimit:9.9996;}
</style>
<rect class="st0" width="5000" height="5000"/>
<circle class="st1" cx="1251.4" cy="360.3" r="133.9"/>
<circle class="st2" cx="4120.3" cy="487.2" r="336.6"/>
<g>
	<path class="st3" d="M2519,1281.2L2519,1281.2l-631.7,966c210.5-81.3,421.1-162.7,631.7-244.1V1281.2z"/>
	<path class="st4" d="M3150.7,2247.1l-631.6-966c0,240.6,0,481.3,0,721.9C2729.6,2084.5,2940.1,2165.8,3150.7,2247.1z"/>
	<path class="st4" d="M2519,3199.4l0.1,0.1l631.7-916.6c-210.6,84.2-421.2,168.5-631.7,252.7L2519,3199.4z"/>
	<path class="st3" d="M2516.1,2536.7c-209.6-84.6-419.1-169.3-628.7-253.9l631.6,916.6v-663.9C2518,2536,2517,2536.3,2516.1,2536.7z
		"/>
	<path class="st3" d="M1887.3,2247.2c77.7,30.2,155.2,60.6,232.6,91.4c133.3,52.9,266.4,106.7,399.1,161.3v-496.8
		C2308.4,2084.5,2097.8,2165.9,1887.3,2247.2z"/>
	<path class="st5" d="M2598.8,1995.6"/>
	<g>
		<line class="st6" x1="1960.1" y1="2135.8" x2="2519" y2="2369.6"/>
		<line class="st6" x1="2029.9" y1="2029.1" x2="2519" y2="2230.2"/>
		<line class="st6" x1="2110.3" y1="1906.1" x2="2519" y2="2063"/>
		<line class="st6" x1="2189.3" y1="1785.3" x2="2519" y2="1916.7"/>
		<line class="st6" x1="2286.2" y1="1637.1" x2="2519" y2="1721.6"/>
		<line class="st6" x1="2363.4" y1="1519" x2="2519" y2="1566"/>
		<line class="st6" x1="2010" y1="2460.8" x2="2519" y2="2666.9"/>
		<line class="st6" x1="2122.3" y1="2623.8" x2="2519" y2="2792.3"/>
		<line class="st6" x1="2225.6" y1="2773.7" x2="2519" y2="2901.7"/>
		<line class="st6" x1="2329.9" y1="2925" x2="2519" y2="3001.3"/>
	</g>
	<g>
		<line class="st7" x1="3077.9" y1="2133.6" x2="2519" y2="2367.4"/>
		<line class="st7" x1="3008.1" y1="2026.9" x2="2519" y2="2228"/>
		<line class="st7" x1="2927.7" y1="1903.9" x2="2519" y2="2060.8"/>
		<line class="st7" x1="2848.7" y1="1783.1" x2="2519" y2="1914.5"/>
		<line class="st7" x1="2751.8" y1="1634.9" x2="2519" y2="1719.4"/>
		<line class="st7" x1="2674.6" y1="1516.8" x2="2519" y2="1563.7"/>
		<line class="st7" x1="3028.1" y1="2459.6" x2="2519" y2="2665.6"/>
		<line class="st7" x1="2915.8" y1="2622.6" x2="2519" y2="2791.1"/>
		<line class="st7" x1="2812.5" y1="2772.5" x2="2519" y2="2900.5"/>
		<line class="st7" x1="2708.2" y1="2923.8" x2="2519" y2="3000.1"/>
	</g>
	<path class="st3" d="M3150.7,2247.2L3150.7,2247.2c-103.4-42.4-207.1-83.7-311.2-123.9c-132.1-51-245.7-92.8-273.4-103
		c-19.8-7.3-36.2-13.2-47.1-17.2c0,165.6,0,331.2,0,496.8c105.3-42.1,210.6-84.2,315.8-126.3
		C2940.1,2331.5,3045.4,2289.3,3150.7,2247.2z"/>
	<g>
		<line class="st2" x1="2986.6" y1="2171.8" x2="3045.9" y2="2282.9"/>
		<line class="st2" x1="3049.1" y1="2323.6" x2="3016.3" y2="2464.4"/>
		<line class="st2" x1="2441.2" y1="1542.5" x2="2383.2" y2="1672.3"/>
		<line class="st2" x1="2338.7" y1="1656.2" x2="2264.5" y2="1815.3"/>
		<line class="st2" x1="2441.2" y1="1693.4" x2="2383.2" y2="1862.6"/>
		<line class="st2" x1="2314.7" y1="1835.3" x2="2251.4" y2="1960.3"/>
		<line class="st2" x1="2424.5" y1="1879" x2="2372.3" y2="2006.7"/>
		<line class="st2" x1="2203.2" y1="1941.8" x2="2136.9" y2="2073.1"/>
		<line class="st2" x1="2308.9" y1="1982.4" x2="2255.2" y2="2121.8"/>
		<line class="st2" x1="2441.2" y1="2029.1" x2="2389.9" y2="2177.2"/>
		<line class="st2" x1="2092.7" y1="2054.9" x2="2029.9" y2="2165"/>
		<line class="st2" x1="2189.3" y1="2094.7" x2="2137" y2="2209.8"/>
		<line class="st2" x1="2329.3" y1="2152.2" x2="2286.2" y2="2272.2"/>
		<line class="st2" x1="2464" y1="2207.6" x2="2424.5" y2="2330.1"/>
		<line class="st2" x1="2084.6" y1="2187.9" x2="2029.9" y2="2303"/>
		<line class="st2" x1="2207.1" y1="2239.1" x2="2151.1" y2="2351"/>
		<line class="st2" x1="2340.8" y1="2295.1" x2="2286.2" y2="2405.1"/>
		<line class="st2" x1="2472.3" y1="2350.1" x2="2424.5" y2="2461.2"/>
		<line class="st2" x1="2598.8" y1="1539.7" x2="2649.3" y2="1672.1"/>
		<line class="st2" x1="2683.9" y1="1659.6" x2="2773.6" y2="1805.8"/>
		<line class="st2" x1="2596.8" y1="1691.2" x2="2665.8" y2="1856"/>
		<line class="st2" x1="2728.7" y1="1831" x2="2798.5" y2="1953.5"/>
		<line class="st2" x1="2613.6" y1="1876.8" x2="2669.3" y2="2003.1"/>
		<line class="st2" x1="2848.7" y1="1934.3" x2="2927.7" y2="2063"/>
		<line class="st2" x1="2723.4" y1="1984.6" x2="2795.6" y2="2110"/>
		<line class="st2" x1="2581.9" y1="2036.7" x2="2641.5" y2="2177.7"/>
		<line class="st2" x1="2868" y1="2084.5" x2="2930.9" y2="2195.1"/>
		<line class="st2" x1="2723.4" y1="2144" x2="2777.7" y2="2259.2"/>
		<line class="st2" x1="2598" y1="2195.6" x2="2654.5" y2="2310.8"/>
		<line class="st2" x1="2580.7" y1="2341.6" x2="2626.8" y2="2456.8"/>
		<line class="st2" x1="2708.2" y1="2295.1" x2="2759.5" y2="2399.2"/>
		<line class="st2" x1="2834.9" y1="2235.3" x2="2901.1" y2="2351"/>
		<line class="st2" x1="2029.9" y1="2347.1" x2="2057.3" y2="2480"/>
		<line class="st2" x1="2145.2" y1="2386.9" x2="2170" y2="2525.6"/>
		<line class="st2" x1="2281" y1="2441.8" x2="2307.8" y2="2581.4"/>
		<line class="st2" x1="2424.5" y1="2499.7" x2="2448.4" y2="2638.3"/>
		<line class="st2" x1="2631.3" y1="2490.8" x2="2603.8" y2="2631.3"/>
		<line class="st2" x1="2773.6" y1="2433.8" x2="2748.5" y2="2572.8"/>
		<line class="st2" x1="2915.8" y1="2376.9" x2="2890.4" y2="2515.4"/>
		<line class="st2" x1="2122.3" y1="2506.3" x2="2157.6" y2="2638.8"/>
		<line class="st2" x1="2239.6" y1="2553.8" x2="2274.5" y2="2688.5"/>
		<line class="st2" x1="2363.4" y1="2603.9" x2="2398.4" y2="2741.1"/>
		<line class="st2" x1="2667.8" y1="2605.4" x2="2646.5" y2="2737"/>
		<line class="st2" x1="2823.2" y1="2542.6" x2="2796.7" y2="2673.2"/>
		<line class="st2" x1="2948.3" y1="2491.9" x2="2915.8" y2="2622.6"/>
		<line class="st2" x1="2220.7" y1="2665.6" x2="2264.5" y2="2792.3"/>
		<line class="st2" x1="2329.9" y1="2708.1" x2="2372.3" y2="2849.5"/>
		<line class="st2" x1="2448.4" y1="2762.3" x2="2488.2" y2="2888.3"/>
		<line class="st2" x1="2598.8" y1="2757.2" x2="2581.4" y2="2873.3"/>
		<line class="st2" x1="2723.4" y1="2704.4" x2="2691.5" y2="2825.3"/>
		<line class="st2" x1="2848.7" y1="2651.1" x2="2812.5" y2="2772.5"/>
		<line class="st2" x1="2312.9" y1="2811.8" x2="2362.4" y2="2938.2"/>
		<line class="st2" x1="2424.5" y1="2860.5" x2="2468.3" y2="2980.9"/>
		<line class="st2" x1="2633.3" y1="2850.7" x2="2611.7" y2="2962.8"/>
		<line class="st2" x1="2748.5" y1="2800.5" x2="2708.2" y2="2923.8"/>
	</g>
</g>
<g>
	<ellipse transform="matrix(0.968 -0.2508 0.2508 0.968 0.564 1052.4531)" class="st8" cx="4129.4" cy="524" rx="842.2" ry="81.7"/>
	
		<ellipse transform="matrix(0.968 -0.2508 0.2508 0.968 5.4898 1053.3049)" class="st8" cx="4135.2" cy="505.1" rx="751.9" ry="64.9"/>
</g>
<g>
	
		<ellipse transform="matrix(0.3096 -0.9509 0.9509 0.3096 497.0297 1461.3188)" class="st9" cx="1254.8" cy="388.4" rx="29.7" ry="305.5"/>
	
		<ellipse transform="matrix(0.3096 -0.9509 0.9509 0.3096 505.2578 1463.2522)" class="st9" cx="1260.3" cy="383.7" rx="23.5" ry="272.8"/>
</g>
<circle class="st10" cx="418.9" cy="3532.6" r="36"/>
<g>
	
		<ellipse transform="matrix(0.3096 -0.9509 0.9509 0.3096 -3076.0713 2843.4993)" class="st11" cx="420.1" cy="3540" rx="8" ry="82.2"/>
	
		<ellipse transform="matrix(0.3096 -0.9509 0.9509 0.3096 -3073.8772 2843.9739)" class="st11" cx="421.5" cy="3538.7" rx="6.3" ry="73.4"/>
</g>
<g>
	
		<ellipse transform="matrix(0.8851 -0.4654 0.4654 0.8851 -1597.0471 602.3483)" class="st12" cx="421.4" cy="3535.6" rx="82.2" ry="8"/>
	
		<ellipse transform="matrix(0.8851 -0.4654 0.4654 0.8851 -1596.1676 602.1535)" class="st12" cx="421.4" cy="3533.7" rx="73.4" ry="6.3"/>
</g>
<g id="Layer_2_1_">
</g>
<g id="Layer_3">
	<path class="st13" d="M4295.9,2722.3c-6.4,0-6.4,10,0,10S4302.3,2722.3,4295.9,2722.3z"/>
	<path class="st13" d="M1176.2,1614.7c-6.4,0-6.4,10,0,10S1182.6,1614.7,1176.2,1614.7z"/>
	<path class="st13" d="M2277.9,802.9c-6.4,0-6.4,10,0,10C2284.3,812.9,2284.3,802.9,2277.9,802.9z"/>
	<path class="st13" d="M694.9,1510.3c-6.4,0-6.4,10,0,10C701.3,1520.3,701.3,1510.3,694.9,1510.3z"/>
	<path class="st13" d="M1002.2,2890.4c-6.4,0-6.4,10,0,10C1008.6,2900.4,1008.6,2890.4,1002.2,2890.4z"/>
	<path class="st13" d="M1303.7,3974.8c-6.4,0-6.4,10,0,10C1310.2,3984.8,1310.2,3974.8,1303.7,3974.8z"/>
	<path class="st13" d="M2765,3940c-6.4,0-6.4,10,0,10S2771.4,3940,2765,3940z"/>
	<path class="st13" d="M3594.2,3708c-6.4,0-6.4,10,0,10C3600.6,3718,3600.7,3708,3594.2,3708z"/>
	<path class="st13" d="M3901.5,1220.4c-6.4,0-6.4,10,0,10C3908,1230.4,3908,1220.4,3901.5,1220.4z"/>
	<path class="st13" d="M3078.1,918.9h-11.6c-6.4,0-6.4,10,0,10h11.6C3084.6,928.9,3084.6,918.9,3078.1,918.9z"/>
	<path class="st13" d="M1785,1029c-6.4,0-6.4,10,0,10S1791.5,1029,1785,1029z"/>
	<path class="st13" d="M1350.1,2861.4c-6.4,0-6.4,10,0,10S1356.6,2861.4,1350.1,2861.4z"/>
	<path class="st13" d="M1413.9,3719.6c-6.4,0-6.4,10,0,10S1420.3,3719.6,1413.9,3719.6z"/>
	<path class="st13" d="M4023.3,3278.9c-6.4,0-6.4,10,0,10S4029.8,3278.9,4023.3,3278.9z"/>
	<path class="st13" d="M4156.7,3945.8c-2.7,0.1-5,2.2-5,5v5.8c0,2.6,2.3,5.1,5,5s5-2.2,5-5v-5.8
		C4161.7,3948.2,4159.4,3945.7,4156.7,3945.8z"/>
</g>
<polygon class="st14" points="1138.5,1252.8 1141.3,1209 1101,1191.9 1144.7,1194.7 1161.8,1154.4 1159,1198.1 1199.3,1215.3 
	1155.6,1212.4 "/>
<polygon class="st14" points="1993.3,4324.4 1991.4,4352.6 2017.5,4363.7 1989.2,4361.9 1978.2,4388 1980,4359.7 1953.9,4348.6 
	1982.2,4350.4 "/>
<polygon class="st14" points="3583.5,1921.9 3586.1,1881.8 3549.1,1866.1 3589.2,1868.7 3604.9,1831.7 3602.3,1871.8 3639.3,1887.5 
	3599.2,1884.9 "/>
<polygon class="st14" points="2254.2,1267.8 2253.1,1284.8 2268.8,1291.5 2251.8,1290.4 2245.1,1306.1 2246.2,1289.1 2230.5,1282.4 
	2247.5,1283.5 "/>
<polygon class="st14" points="3479,897.6 3479.6,889.6 3472.2,886.5 3480.2,887 3483.3,879.7 3482.8,887.7 3490.1,890.8 
	3482.2,890.3 "/>
<polygon class="st14" points="3361.1,413.3 3361.6,405.4 3354.2,402.3 3362.2,402.8 3365.3,395.5 3364.8,403.4 3372.1,406.5 
	3364.2,406 "/>
<polygon class="st14" points="2629.4,274.1 2630,266.1 2622.6,263 2630.6,263.5 2633.7,256.2 2633.2,264.2 2640.5,267.3 
	2632.6,266.8 "/>
<polygon class="st14" points="1730.8,334.8 1731.3,326.9 1724,323.8 1731.9,324.3 1735,317 1734.5,324.9 1741.8,328 1733.9,327.5 
	"/>
<polygon class="st14" points="1522.5,240 1522.2,244 1526,245.6 1521.9,245.4 1520.3,249.1 1520.6,245 1516.9,243.5 1520.9,243.7 
	"/>
<polygon class="st14" points="487.5,248.6 488.1,240.7 480.7,237.6 488.7,238.1 491.8,230.8 491.3,238.7 498.6,241.8 490.7,241.3 
	"/>
<polygon class="st14" points="293.5,120.1 293.3,122.8 295.9,123.9 293.1,123.7 292,126.3 292.2,123.5 289.6,122.4 292.4,122.6 "/>
<polygon class="st14" points="609.9,579.9 610.4,571.9 603.1,568.8 611,569.3 614.2,562 613.6,570 621,573.1 613,572.6 "/>
<polygon class="st14" points="357.8,418 358.3,410 351,406.9 358.9,407.4 362,400.1 361.5,408 368.8,411.1 360.9,410.6 "/>
<polygon class="st14" points="883.1,956.9 883.6,948.9 876.3,945.8 884.2,946.4 887.3,939 886.8,947 894.1,950.1 886.2,949.6 "/>
<polygon class="st14" points="671.7,1725.7 672.2,1717.8 664.9,1714.7 672.8,1715.2 676,1707.9 675.4,1715.8 682.8,1718.9 
	674.8,1718.4 "/>
<polygon class="st14" points="551.3,1886.3 551.8,1878.4 544.5,1875.3 552.4,1875.8 555.5,1868.5 555,1876.4 562.4,1879.5 
	554.4,1879 "/>
<polygon class="st14" points="1122,2120.8 1122.5,2112.9 1115.2,2109.8 1123.1,2110.3 1126.2,2102.9 1125.7,2110.9 1133,2114 
	1125.1,2113.5 "/>
<polygon class="st14" points="205.8,2138.6 206.3,2130.7 199,2127.6 206.9,2128.1 210,2120.8 209.5,2128.7 216.8,2131.8 
	208.9,2131.3 "/>
<polygon class="st14" points="638,2438.4 638.5,2430.5 631.2,2427.4 639.1,2427.9 642.2,2420.6 641.7,2428.5 649,2431.6 
	641.1,2431.1 "/>
<polygon class="st14" points="223.6,2565.8 224.2,2557.9 216.8,2554.7 224.8,2555.3 227.9,2547.9 227.4,2555.9 234.7,2559 
	226.8,2558.5 "/>
<polygon class="st14" points="980.2,2673.5 980.7,2665.5 973.4,2662.4 981.3,2662.9 984.5,2655.6 983.9,2663.5 991.3,2666.7 
	983.3,2666.1 "/>
<polygon class="st14" points="564.3,3318.3 564.9,3310.3 557.5,3307.2 565.5,3307.8 568.6,3300.4 568.1,3308.4 575.4,3311.5 
	567.4,3311 "/>
<polygon class="st14" points="1470.1,3621.5 1470.7,3613.5 1463.3,3610.4 1471.3,3610.9 1474.4,3603.6 1473.9,3611.5 1481.2,3614.7 
	1473.3,3614.1 "/>
<polygon class="st14" points="1011.8,4465.2 1012.4,4457.2 1005,4454.1 1013,4454.6 1016.1,4447.3 1015.6,4455.2 1022.9,4458.3 
	1015,4457.8 "/>
<polygon class="st14" points="182,4305.4 182.5,4297.5 175.2,4294.4 183.2,4294.9 186.3,4287.6 185.8,4295.5 193.1,4298.6 
	185.1,4298.1 "/>
<polygon class="st14" points="1100.6,4920.4 1101.1,4912.5 1093.7,4909.4 1101.7,4909.9 1104.8,4902.5 1104.3,4910.5 1111.6,4913.6 
	1103.7,4913.1 "/>
<polygon class="st14" points="1656.3,4984.7 1656.8,4976.8 1649.5,4973.7 1657.5,4974.2 1660.6,4966.9 1660.1,4974.8 1667.4,4977.9 
	1659.4,4977.4 "/>
<polygon class="st14" points="2193.4,4803 2193.9,4795.1 2186.6,4792 2194.5,4792.5 2197.6,4785.2 2197.1,4793.1 2204.4,4796.2 
	2196.5,4795.7 "/>
<polygon class="st14" points="2639.2,4687.8 2639.7,4679.9 2632.4,4676.8 2640.3,4677.3 2643.4,4670 2642.9,4677.9 2650.2,4681 
	2642.3,4680.5 "/>
<polygon class="st14" points="3031.2,3145.1 3031.3,3143.1 3029.5,3142.4 3031.5,3142.5 3032.2,3140.8 3032.1,3142.7 3033.9,3143.4 
	3031.9,3143.3 "/>
<polygon class="st14" points="2231.8,2828 2231.9,2826.1 2230.1,2825.3 2232,2825.5 2232.8,2823.7 2232.7,2825.6 2234.4,2826.4 
	2232.5,2826.2 "/>
<polygon class="st14" points="2931.6,2665 2931.7,2663 2930,2662.3 2931.9,2662.4 2932.6,2660.7 2932.5,2662.6 2934.3,2663.3 
	2932.4,2663.2 "/>
<polygon class="st14" points="4673.9,1204.8 4674.1,1202.9 4672.3,1202.1 4674.2,1202.2 4675,1200.5 4674.8,1202.4 4676.6,1203.1 
	4674.7,1203 "/>
<polygon class="st14" points="4598.5,608.1 4598.6,606.2 4596.8,605.4 4598.7,605.6 4599.5,603.8 4599.4,605.7 4601.1,606.5 
	4599.2,606.3 "/>
</svg>
